# xmcd CD database file
#
# Track frame offsets:
#	150
#	18975
#	35915
#	51792
#
# Disc length: 917 seconds
#
# Revision: 0
# Processed by: cddbd v1.5.1PL2 Copyright (c) Steve Scherf et al.
# Submitted via: CDex 1.51
#
DISCID=2e039304
DTITLE=にしん - にしんの唄(メジャー盤)
DYEAR=2005
DGENRE=JPop
TTITLE0=Winter Moon
TTITLE1=もう一度 愛したい
TTITLE2=石狩挽歌
TTITLE3=夏の仕業でした。
EXTD=YEAR: 2005
EXTT0=
EXTT1=
EXTT2=
EXTT3=
PLAYORDER=
